<svg id="Icons" height="512" viewBox="0 0 74 74" width="512" xmlns="http://www.w3.org/2000/svg" fill="rgba(5,56,107, 0.7)"><path d="m68 72h-62a4 4 0 0 1 -4-4v-45a1 1 0 0 1 1-1h68a1 1 0 0 1 1 1v45a4 4 0 0 1 -4 4zm-64-48v44a2 2 0 0 0 2 2h62a2 2 0 0 0 2-2v-44z"/><path d="m71 24h-68a1 1 0 0 1 -1-1v-11a4 4 0 0 1 4-4h9a1 1 0 0 1 0 2h-9a2 2 0 0 0 -2 2v10h66v-10a2 2 0 0 0 -2-2h-9a1 1 0 0 1 0-2h9a4 4 0 0 1 4 4v11a1 1 0 0 1 -1 1z"/><path d="m53 10h-32a1 1 0 0 1 0-2h32a1 1 0 0 1 0 2z"/><path d="m56 15.44a4 4 0 0 1 -4-4v-5.44a4 4 0 0 1 8 0v5.44a4 4 0 0 1 -4 4zm0-11.44a2 2 0 0 0 -2 2v5.44a2 2 0 0 0 4 0v-5.44a2 2 0 0 0 -2-2z"/><path d="m18 15.44a4 4 0 0 1 -4-4v-5.44a4 4 0 0 1 8 0v5.44a4 4 0 0 1 -4 4zm0-11.44a2 2 0 0 0 -2 2v5.44a2 2 0 0 0 4 0v-5.44a2 2 0 0 0 -2-2z"/><path d="m61 39.07h-5.14a2 2 0 0 1 -2-2v-5.14a2 2 0 0 1 2-2h5.14a2 2 0 0 1 2 2v5.14a2 2 0 0 1 -2 2zm-5.14-7.14v5.14h5.14v-5.14z"/><path d="m46.71 39.07h-5.14a2 2 0 0 1 -2-2v-5.14a2 2 0 0 1 2-2h5.14a2 2 0 0 1 2 2v5.14a2 2 0 0 1 -2 2zm-5.14-7.14v5.14h5.14v-5.14z"/><path d="m32.43 39.07h-5.14a2 2 0 0 1 -2-2v-5.14a2 2 0 0 1 2-2h5.14a2 2 0 0 1 2 2v5.14a2 2 0 0 1 -2 2zm-5.14-7.14v5.14h5.14v-5.14z"/><path d="m61 51.57h-5.14a2 2 0 0 1 -2-2v-5.14a2 2 0 0 1 2-2h5.14a2 2 0 0 1 2 2v5.14a2 2 0 0 1 -2 2zm-5.14-7.14v5.14h5.14v-5.14z"/><path d="m46.71 51.57h-5.14a2 2 0 0 1 -2-2v-5.14a2 2 0 0 1 2-2h5.14a2 2 0 0 1 2 2v5.14a2 2 0 0 1 -2 2zm-5.14-7.14v5.14h5.14v-5.14z"/><path d="m32.43 51.57h-5.14a2 2 0 0 1 -2-2v-5.14a2 2 0 0 1 2-2h5.14a2 2 0 0 1 2 2v5.14a2 2 0 0 1 -2 2zm-5.14-7.14v5.14h5.14v-5.14z"/><path d="m18.14 51.57h-5.14a2 2 0 0 1 -2-2v-5.14a2 2 0 0 1 2-2h5.14a2 2 0 0 1 2 2v5.14a2 2 0 0 1 -2 2zm-5.14-7.14v5.14h5.14v-5.14z"/><path d="m46.71 64.07h-5.14a2 2 0 0 1 -2-2v-5.14a2 2 0 0 1 2-2h5.14a2 2 0 0 1 2 2v5.14a2 2 0 0 1 -2 2zm-5.14-7.14v5.14h5.14v-5.14z"/><path d="m32.43 64.07h-5.14a2 2 0 0 1 -2-2v-5.14a2 2 0 0 1 2-2h5.14a2 2 0 0 1 2 2v5.14a2 2 0 0 1 -2 2zm-5.14-7.14v5.14h5.14v-5.14z"/><path d="m18.14 64.07h-5.14a2 2 0 0 1 -2-2v-5.14a2 2 0 0 1 2-2h5.14a2 2 0 0 1 2 2v5.14a2 2 0 0 1 -2 2zm-5.14-7.14v5.14h5.14v-5.14z"/></svg>